Coordinates
version=1
nRows=19
nColumns=36
inDegrees=yes

Units are S.I. units (second, meters, Newtons, ...)
If the header above contains a line with 'inDegrees', this indicates whether rotational values are in degrees (yes) or radians (no).

endheader
time	pelvis_tilt	pelvis_list	pelvis_rotation	pelvis_tx	pelvis_ty	pelvis_tz	hip_flexion_r	hip_adduction_r	hip_rotation_r	knee_angle_r	knee_angle_r_beta	ankle_angle_r	subtalar_angle_r	mtp_angle_r	hip_flexion_l	hip_adduction_l	hip_rotation_l	knee_angle_l	knee_angle_l_beta	ankle_angle_l	subtalar_angle_l	mtp_angle_l	lumbar_extension	lumbar_bending	lumbar_rotation	arm_flex_r	arm_add_r	arm_rot_r	elbow_flex_r	pro_sup_r	arm_flex_l	arm_add_l	arm_rot_l	elbow_flex_l	pro_sup_l
      0.98000000	     -2.17505100	      0.41224071	      0.66491829	      1.08137582	      0.90664463	     -0.23197511	     33.28165133	     -0.06234118	      0.19289140	     37.36649191	      0.65216831	      3.69871809	     -3.56199126	     -7.09330209	     -3.50586867	      6.86402062	      9.48037391	     12.65932966	      0.22094698	     12.99873196	    -11.77651886	     -7.09330209	     -7.73888364	      1.35500400	     -7.85028055	     -8.12956447	    -15.61720459	      2.34884341	     40.19140365	    106.18133200	      4.69605318	    -16.81566978	     -2.56067479	     54.74542623	    105.73730093
      0.99000000	     -2.06687665	      0.55853084	      0.76508421	      1.09332506	      0.90543003	     -0.23153373	     32.94945837	      0.13530032	      1.40047474	     33.59682461	      0.58637521	      4.21457369	     -3.78647820	     -7.10080231	     -4.83825037	      6.90351912	      9.30868996	     11.95975541	      0.20873711	     13.12946983	    -11.47247005	     -7.10080231	     -7.86879990	      1.18034673	     -8.10682097	     -8.84738883	    -15.55002993	      1.35336730	     40.34363212	    106.14149339	      5.07924456	    -17.22650354	     -2.01376777	     55.83853688	    105.84196588
      1.00000000	     -2.18452927	      0.69784911	      0.85187007	      1.10525444	      0.90377147	     -0.23104440	     32.79606418	      0.33651223	      2.81600091	     29.85192462	      0.52101437	      4.26713786	     -4.45371250	     -7.14365084	     -5.79961622	      6.90501433	      8.83930615	     11.50058915	      0.20072315	     13.49432971	    -10.42858590	     -7.14365084	     -7.69678941	      1.04780338	     -7.83710167	    -10.10849771	    -15.27041748	     -0.88594277	     40.99278113	    106.38048565	      5.97013510	    -17.52119026	     -0.73128353	     56.27199194	    105.66794380
      1.01000000	     -2.40941677	      0.83620003	      0.98499256	      1.11727781	      0.90190411	     -0.23072811	     32.73538413	      0.33998753	      3.88739255	     26.29411508	      0.45891888	      4.87947161	     -4.01354756	     -7.14783122	     -6.64285532	      6.95652445	      8.75353299	     11.07958826	      0.19337529	     13.46457258	    -10.15496018	     -7.14783122	     -7.36985581	      0.89485641	     -8.21039694	    -10.63596366	    -15.36507002	     -1.11747912	     40.84991350	    106.38388900	      6.19141560	    -17.76732376	     -0.47239910	     57.10620589	    105.74338958
      1.02000000	     -2.46482572	      0.94111316	      1.00838320	      1.12949843	      0.90017889	     -0.23014716	     32.36092908	      0.46045532	      5.21591327	     22.76036819	      0.39724336	      5.00565399	     -4.74132321	     -7.16866882	     -7.67803102	      6.90832031	      8.05619936	     10.61661255	      0.18529484	     13.81162489	     -9.01220904	     -7.16866882	     -7.25906752	      0.77988174	     -8.38283116	    -11.21708167	    -15.34417407	     -1.87437975	     40.92108520	    106.45443186	      6.43530367	    -18.00065306	     -0.17094976	     58.02473658	    105.69869635
      1.03000000	     -2.68851247	      1.04217198	      1.13445515	      1.14180028	      0.89815657	     -0.22975917	     32.25775050	      0.35937478	      5.78776401	     19.68740749	      0.34361008	      5.61349934	     -4.32812952	     -7.17314539	     -8.46213515	      6.90785419	      7.85217114	     10.34405419	      0.18053780	     13.85956466	     -8.66983382	     -7.17314539	     -6.89705520	      0.68158643	     -8.71286622	    -11.68873399	    -15.41802987	     -2.08426600	     40.72149860	    106.44485384	      6.60808284	    -18.18440336	      0.07555251	     58.67463372	    105.75295232
      1.04000000	     -2.79201834	      1.09610695	      1.22976619	      1.15427879	      0.89625859	     -0.22920175	     31.98538429	      0.31641323	      6.13717590	     16.93596396	      0.29558833	      6.11107187	     -4.30483295	     -7.18058562	     -9.34862267	      6.81996220	      7.43480329	     10.10676097	      0.17639626	     14.03087106	     -7.93199677	     -7.18058562	     -6.67735977	      0.63484968	     -8.98397329	    -12.11454574	    -15.45188008	     -2.45102371	     40.55917083	    106.42352782	      6.73998764	    -18.35611603	      0.27966407	     59.39037753	    105.78512064
      1.05000000	     -3.10621473	      1.11176171	      1.42964710	      1.16680559	      0.89406673	     -0.22878364	     32.01833629	      0.22731304	      5.98604783	     14.76755031	      0.25774238	      6.55626719	     -4.24884593	     -7.18370937	     -9.85622038	      6.70089321	      7.27294771	     10.17733871	      0.17762807	     14.03641222	     -7.53011083	     -7.18370937	     -6.19317995	      0.63826612	     -9.30740117	    -12.56419127	    -15.54843817	     -2.66883787	     40.35323992	    106.39616062	      6.83938549	    -18.41555195	      0.41739594	     59.88131061	    105.82335692
      1.06000000	     -3.27885597	      1.07490982	      1.63179717	      1.17946322	      0.89210280	     -0.22824283	     31.87075341	      0.22213367	      5.62190065	     13.05881331	      0.22791929	      6.99768338	     -4.38341244	     -7.18710283	    -10.45017565	      6.50152375	      7.09220444	     10.37271682	      0.18103806	     14.09634341	     -7.05806693	     -7.18710283	     -5.86862917	      0.73770181	     -9.65280534	    -12.87651655	    -15.55959910	     -2.93955241	     40.13402133	    106.35623299	      6.87397460	    -18.47813858	      0.55626298	     60.37481001	    105.86222476
      1.07000000	     -3.35930109	      0.96202271	      1.83487285	      1.19235470	      0.89028207	     -0.22757714	     31.63427990	      0.34025954	      5.07731156	     11.96638016	      0.20885273	      7.17224951	     -4.91383745	     -7.20160265	    -11.01733361	      6.14180508	      6.48513551	     10.80594763	      0.18859936	     14.73597191	     -5.54183051	     -7.20160265	     -5.67116384	      0.90091929	    -10.02614466	    -13.09308347	    -15.48451309	     -3.56227351	     39.94016114	    106.27848319	      6.77589541	    -18.50380373	      0.48233365	     61.02571455	    105.84284430
      1.08000000	     -3.53026193	      0.84766961	      2.10056183	      1.20535034	      0.88838858	     -0.22695110	     31.54304451	      0.45702432	      4.43122103	     11.54161914	      0.20143925	      7.54750927	     -5.33509913	     -7.20433273	    -11.39767672	      5.83090244	      6.49366264	     11.42815801	      0.19945898	     14.55597186	     -5.39810316	     -7.20433273	     -5.32028393	      1.07647394	    -10.34809315	    -13.37839688	    -15.53643341	     -3.68409002	     39.72369280	    106.25106322	      6.76808997	    -18.46550532	      0.58298313	     61.27070408	    105.86689578
      1.09000000	     -3.62459209	      0.67644906	      2.39392758	      1.21855366	      0.88667081	     -0.22628380	     31.35298985	      0.65882800	      3.73737039	     11.59907404	      0.20244203	      7.77033238	     -5.85646691	     -7.20663121	    -11.77499260	      5.43419900	      6.56925424	     12.21076726	      0.21311809	     14.34247258	     -5.25781575	     -7.20663121	     -5.05965257	      1.32163214	    -10.66778120	    -13.59479259	    -15.55541096	     -3.86918456	     39.46719919	    106.20956599	      6.69471919	    -18.40182227	      0.65361251	     61.56505155	    105.89547665
      1.10000000	     -3.70089058	      0.46276176	      2.69964245	      1.23198928	      0.88505411	     -0.22559573	     31.15991414	      0.92033360	      2.95560222	     12.08288235	      0.21088608	      7.64040571	     -6.51027354	     -7.21082775	    -12.05110598	      4.97103776	      6.56843336	     13.22485458	      0.23081726	     14.18215187	     -5.06413703	     -7.21082775	     -4.79096862	      1.61691444	    -11.10138099	    -13.69787049	    -15.51169340	     -4.22550603	     39.17511942	    106.13694516	      6.40483860	    -18.35380688	      0.62557371	     61.90730859	    105.91655690
      1.11000000	     -3.71905634	      0.22099119	      2.96135052	      1.24563281	      0.88358325	     -0.22477977	     30.86269466	      1.28134158	      2.49160835	     12.78233523	      0.22309384	      7.38219482	     -7.03714648	     -7.21396881	    -12.32462320	      4.46819508	      6.60758517	     14.35115024	      0.25047482	     13.79146143	     -4.87137550	     -7.21396881	     -4.59552336	      1.96549961	    -11.34981736	    -13.83482804	    -15.48567174	     -4.48356898	     38.92270678	    106.08100095	      6.15190442	    -18.19624157	      0.56427467	     62.18214235	    105.93054699
      1.12000000	     -3.77516101	     -0.07038858	      3.17660524	      1.25955018	      0.88218378	     -0.22387180	     30.59721836	      1.72388750	      2.09775281	     13.60800029	      0.23750441	      6.60596650	     -7.62004381	     -7.21903407	    -12.43962435	      3.88916430	      6.44673328	     15.67560086	      0.27359085	     13.31220936	     -4.55541516	     -7.21903407	     -4.31718384	      2.36425469	    -11.62811042	    -13.92027515	    -15.44164194	     -4.89071182	     38.62802576	    106.00133670	      5.70780877	    -18.03870767	      0.37337399	     62.46817549	    105.93227183
      1.13000000	     -3.79512048	     -0.40441790	      3.29969648	      1.27358232	      0.88099172	     -0.22277106	     30.26502663	      2.28066772	      1.96895156	     14.41984856	      0.25167384	      5.53695379	     -8.19836147	     -7.22601713	    -12.50283764	      3.24602825	      6.13224923	     17.12984445	      0.29897219	     12.68567691	     -4.00268650	     -7.22601713	     -4.08403162	      2.81097713	    -11.77368222	    -13.94711609	    -15.37787670	     -5.28533202	     38.34199094	    105.92861787	      5.23810907	    -17.77912377	      0.13650642	     62.68916432	    105.92495559
      1.14000000	     -3.65559075	     -0.73569127	      3.34819323	      1.28773285	      0.88022447	     -0.22160845	     29.73848638	      2.86628962	      2.08959228	     15.26595191	      0.26644112	      5.00066932	     -8.17675042	     -7.22731146	    -12.76145368	      2.66230422	      6.25511441	     18.52500870	      0.32332240	     11.85886058	     -3.73041820	     -7.22731146	     -4.06198267	      3.28400736	    -11.67901504	    -14.01632384	    -15.41946752	     -5.39233920	     38.13589687	    105.90381491	      4.93560480	    -17.53864427	      0.16416712	     62.72225275	    105.92929430
      1.15000000	     -3.63504417	     -1.14186888	      3.39574608	      1.30192839	      0.87958707	     -0.22030046	     29.39293406	      3.42578175	      1.59973800	     16.07696426	      0.28059596	      3.77076814	     -8.27074756	     -7.23009680	    -12.42998418	      1.83936534	      5.26913608	     20.62197738	      0.35992140	     10.35856722	     -3.23534948	     -7.23009680	     -3.87274740	      3.81060175	    -11.56546289	    -14.02412548	    -15.34253603	     -5.67589000	     37.74714529	    105.85000392	      4.50078195	    -17.21892435	      0.08483488	     62.71327859	    105.92207774
      1.16000000	     -3.54069034	     -1.56602297	      3.31325346	      1.31618808	      0.87929707	     -0.21874740	     29.00006768	      4.06667996	      1.42130877	     16.99963749	      0.29669965	      2.80329655	     -8.27922823	     -7.23256769	    -12.12963007	      1.00314596	      4.41874037	     22.75669385	      0.39717923	      8.87141281	     -2.49695344	     -7.23256769	     -3.77398160	      4.35055387	    -11.31761608	    -13.96729410	    -15.28326941	     -5.90756833	     37.38334581	    105.80804666	      4.07378376	    -16.86612781	      0.00071695	     62.59188094	    105.90707402
